<svg xmlns="http://www.w3.org/2000/svg" xmlns:xlink="http://www.w3.org/1999/xlink" width="1080" zoomAndPan="magnify" viewBox="0 0 810 809.999993" height="1080" preserveAspectRatio="xMidYMid meet" version="1.0"><defs><g/><clipPath id="c3344e4b51"><path d="M 313 26.503906 L 654 26.503906 L 654 638 L 313 638 Z M 313 26.503906 " clip-rule="nonzero"/></clipPath><clipPath id="075e9235df"><path d="M 138 26.503906 L 476 26.503906 L 476 463 L 138 463 Z M 138 26.503906 " clip-rule="nonzero"/></clipPath><clipPath id="3e3a6099cf"><path d="M 295 189 L 809.398438 189 L 809.398438 639 L 295 639 Z M 295 189 " clip-rule="nonzero"/></clipPath></defs><path fill="#875b56" d="M 643.453125 462.996094 L 722.691406 637.785156 L 439.121094 637.722656 C 447.242188 610.875 455.488281 585.847656 464.257812 562.382812 L 594.285156 562.382812 L 557.785156 462.34375 Z M 427.300781 637.65625 L 380.34375 637.65625 C 375.148438 610.03125 369.171875 585.003906 362.480469 562.382812 L 452.175781 562.382812 C 443.472656 585.914062 435.289062 610.875 427.300781 637.65625 Z M 368.78125 637.65625 L 295.324219 637.65625 C 304.613281 610.679688 314.09375 585.652344 323.835938 562.382812 L 350.53125 562.382812 C 357.480469 584.9375 363.523438 609.898438 368.78125 637.65625 Z M 283.375 637.65625 L 274.28125 637.65625 C 270.253906 610.226562 265.511719 585.328125 259.667969 562.382812 L 311.496094 562.382812 C 301.882812 585.71875 292.46875 610.746094 283.375 637.65625 Z M 262.785156 637.65625 L 0 637.589844 L 80.40625 462.34375 L 180.949219 462.34375 L 127.691406 562.382812 L 247.976562 562.382812 C 253.953125 585.265625 258.691406 610.160156 262.785156 637.65625 Z M 262.785156 637.65625 " fill-opacity="1" fill-rule="evenodd"/><path fill="#875b56" d="M 341.179688 177.503906 L 274.605469 177.503906 L 378.460938 433.417969 C 392.292969 412.550781 406.777344 393.703125 421.976562 376.605469 Z M 383.785156 446.550781 L 442.238281 590.53125 C 452.371094 560.433594 463.089844 532.742188 474.84375 506.9375 L 426.914062 388.828125 C 411.84375 406.183594 397.488281 425.292969 383.785156 446.550781 Z M 448.800781 606.78125 L 461.269531 637.460938 L 527.84375 637.460938 L 480.753906 521.5625 C 469.324219 547.757812 458.800781 576.035156 448.800781 606.78125 Z M 448.800781 606.78125 " fill-opacity="1" fill-rule="evenodd"/><g clip-path="url(#c3344e4b51)"><path fill="#875b56" d="M 411.84375 26.632812 L 313.316406 26.632812 L 443.019531 354.570312 C 466.207031 331.820312 491.082031 312.382812 518.035156 295.15625 Z M 447.695312 366.53125 L 490.5625 474.824219 C 508.230469 441.089844 528.429688 410.539062 552.328125 381.9375 L 522.386719 306.273438 C 495.5625 323.695312 470.816406 343.390625 447.695312 366.53125 Z M 496.082031 488.867188 L 554.863281 637.460938 L 653.390625 637.460938 L 557.136719 394.027344 C 533.429688 423.082031 513.554688 454.21875 496.082031 488.867188 Z M 496.082031 488.867188 " fill-opacity="1" fill-rule="evenodd"/></g><g clip-path="url(#075e9235df)"><path fill="#00a859" d="M 312.472656 270.78125 L 329.164062 311.863281 L 395.738281 311.863281 L 345.269531 187.515625 L 361.054688 147.40625 L 376.511719 186.472656 L 475.039062 186.472656 L 411.84375 26.632812 L 310.132812 26.632812 L 182.765625 350.019531 C 212.773438 363.800781 239.207031 379.207031 262.332031 398.1875 Z M 160.101562 407.613281 L 138.601562 462.34375 L 205.5 462.34375 C 201.472656 455.972656 199.070312 452.660156 194.457031 446.550781 C 184.457031 433.09375 173.089844 420.222656 160.101562 407.613281 Z M 160.101562 407.613281 " fill-opacity="1" fill-rule="evenodd"/></g><path fill="#875b56" d="M 138.601562 462.34375 L 69.625 637.460938 L 168.152344 637.460938 L 224.011719 495.496094 C 223.621094 494.714844 223.230469 493.871094 222.839844 493.027344 C 222.386719 492.117188 221.933594 491.140625 221.414062 490.230469 L 221.414062 490.101562 C 220.566406 488.410156 219.660156 486.785156 218.8125 485.09375 L 218.488281 484.445312 L 217.386719 482.429688 L 217.125 481.976562 L 215.957031 479.894531 L 215.566406 479.113281 L 215.308594 478.660156 L 215.046875 478.207031 L 214.789062 477.75 L 214.527344 477.230469 L 214.007812 476.320312 L 213.75 475.863281 L 213.097656 474.824219 L 212.382812 473.523438 L 212.125 473.070312 L 211.800781 472.613281 L 211.539062 472.09375 L 211.019531 471.183594 L 210.695312 470.730469 L 210.4375 470.273438 L 210.175781 469.820312 L 209.136719 468.128906 L 209.070312 468 L 205.757812 462.800781 L 205.5 462.34375 Z M 138.601562 462.34375 " fill-opacity="1" fill-rule="evenodd"/><path fill="#00a859" d="M 368.914062 638.242188 C 360.792969 595.46875 350.855469 559.394531 338.839844 528.582031 C 323.578125 561.148438 309.09375 597.484375 295.128906 638.242188 Z M 332.929688 514.28125 C 280.90625 394.675781 193.09375 359.902344 52.347656 313.8125 C 122.6875 356.457031 170.296875 395.132812 203.550781 439.660156 C 242.976562 492.570312 261.941406 553.28125 274.347656 638.242188 L 283.179688 638.242188 C 298.960938 591.570312 315.460938 550.554688 332.929688 514.28125 Z M 332.929688 514.28125 " fill-opacity="1" fill-rule="evenodd"/><g clip-path="url(#3e3a6099cf)"><path fill="#00a859" d="M 809.398438 189.917969 C 541.351562 273.121094 402.425781 324.667969 295.128906 638.242188 L 427.105469 638.242188 C 461.726562 522.148438 500.046875 439.527344 564.667969 367.765625 C 621.175781 304.972656 697.6875 250.761719 809.398438 189.917969 Z M 809.398438 189.917969 " fill-opacity="1" fill-rule="evenodd"/></g><g fill="#00a959" fill-opacity="1"><g transform="translate(0.0000035, 691.890711)"><g><path d="M 22.3125 -26.71875 L 12.71875 0 L 9.59375 0 L 0 -26.71875 L 3.25 -26.71875 L 9.5 -9.125 C 9.757812 -8.414062 9.988281 -7.738281 10.1875 -7.09375 C 10.394531 -6.445312 10.578125 -5.820312 10.734375 -5.21875 C 10.890625 -4.625 11.03125 -4.046875 11.15625 -3.484375 C 11.269531 -4.046875 11.40625 -4.628906 11.5625 -5.234375 C 11.726562 -5.835938 11.914062 -6.460938 12.125 -7.109375 C 12.332031 -7.765625 12.5625 -8.453125 12.8125 -9.171875 L 19.03125 -26.71875 Z M 22.3125 -26.71875 "/></g></g></g><g fill="#00a959" fill-opacity="1"><g transform="translate(19.803407, 691.890711)"><g><path d="M 3.65625 0 L 3.65625 -26.71875 L 6.765625 -26.71875 L 6.765625 0 Z M 3.65625 0 "/></g></g></g><g fill="#00a959" fill-opacity="1"><g transform="translate(27.747229, 691.890711)"><g><path d="M 18.53125 0 L 3.65625 0 L 3.65625 -26.71875 L 18.53125 -26.71875 L 18.53125 -23.984375 L 6.765625 -23.984375 L 6.765625 -15.34375 L 17.859375 -15.34375 L 17.859375 -12.625 L 6.765625 -12.625 L 6.765625 -2.734375 L 18.53125 -2.734375 Z M 18.53125 0 "/></g></g></g><g fill="#00a959" fill-opacity="1"><g transform="translate(46.033924, 691.890711)"><g><path d="M 11.859375 0 L 8.734375 0 L 8.734375 -23.984375 L 0.328125 -23.984375 L 0.328125 -26.71875 L 20.234375 -26.71875 L 20.234375 -23.984375 L 11.859375 -23.984375 Z M 11.859375 0 "/></g></g></g><g fill="#00a959" fill-opacity="1"><g transform="translate(64.137879, 691.890711)"><g><path d="M 24.546875 0 L 20.96875 0 L 6.390625 -22.453125 L 6.25 -22.453125 C 6.289062 -21.847656 6.332031 -21.164062 6.375 -20.40625 C 6.425781 -19.644531 6.46875 -18.832031 6.5 -17.96875 C 6.53125 -17.113281 6.546875 -16.242188 6.546875 -15.359375 L 6.546875 0 L 3.65625 0 L 3.65625 -26.71875 L 7.21875 -26.71875 L 21.734375 -4.34375 L 21.859375 -4.34375 C 21.835938 -4.769531 21.804688 -5.375 21.765625 -6.15625 C 21.734375 -6.945312 21.703125 -7.796875 21.671875 -8.703125 C 21.640625 -9.617188 21.625 -10.46875 21.625 -11.25 L 21.625 -26.71875 L 24.546875 -26.71875 Z M 24.546875 0 "/></g></g></g><g fill="#00a959" fill-opacity="1"><g transform="translate(89.807113, 691.890711)"><g><path d="M 20.421875 0 L 17.125 -8.484375 L 6.421875 -8.484375 L 3.140625 0 L 0 0 L 10.453125 -26.828125 L 13.25 -26.828125 L 23.640625 0 Z M 16.203125 -11.25 L 13.0625 -19.671875 C 12.988281 -19.890625 12.867188 -20.25 12.703125 -20.75 C 12.546875 -21.25 12.378906 -21.765625 12.203125 -22.296875 C 12.035156 -22.835938 11.898438 -23.269531 11.796875 -23.59375 C 11.671875 -23.09375 11.535156 -22.597656 11.390625 -22.109375 C 11.253906 -21.617188 11.117188 -21.160156 10.984375 -20.734375 C 10.847656 -20.316406 10.734375 -19.960938 10.640625 -19.671875 L 7.453125 -11.25 Z M 16.203125 -11.25 "/></g></g></g><g fill="#00a959" fill-opacity="1"><g transform="translate(110.962769, 691.890711)"><g><path d="M 15.40625 0 L 6.4375 -23.65625 L 6.28125 -23.65625 C 6.332031 -23.15625 6.375 -22.546875 6.40625 -21.828125 C 6.445312 -21.109375 6.476562 -20.320312 6.5 -19.46875 C 6.53125 -18.625 6.546875 -17.765625 6.546875 -16.890625 L 6.546875 0 L 3.65625 0 L 3.65625 -26.71875 L 8.265625 -26.71875 L 16.71875 -4.5 L 16.859375 -4.5 L 25.453125 -26.71875 L 30.015625 -26.71875 L 30.015625 0 L 26.9375 0 L 26.9375 -17.109375 C 26.9375 -17.898438 26.945312 -18.691406 26.96875 -19.484375 C 27 -20.285156 27.03125 -21.039062 27.0625 -21.75 C 27.101562 -22.46875 27.144531 -23.09375 27.1875 -23.625 L 27.03125 -23.625 L 17.953125 0 Z M 15.40625 0 "/></g></g></g><g fill="#00a959" fill-opacity="1"><g transform="translate(142.114091, 691.890711)"><g/></g></g><g fill="#00a959" fill-opacity="1"><g transform="translate(149.326967, 691.890711)"><g><path d="M 10.875 -26.71875 C 13.070312 -26.71875 14.882812 -26.445312 16.3125 -25.90625 C 17.75 -25.363281 18.816406 -24.535156 19.515625 -23.421875 C 20.222656 -22.316406 20.578125 -20.90625 20.578125 -19.1875 C 20.578125 -17.78125 20.320312 -16.601562 19.8125 -15.65625 C 19.300781 -14.707031 18.628906 -13.941406 17.796875 -13.359375 C 16.972656 -12.773438 16.09375 -12.328125 15.15625 -12.015625 L 22.484375 0 L 18.859375 0 L 12.328125 -11.15625 L 6.765625 -11.15625 L 6.765625 0 L 3.65625 0 L 3.65625 -26.71875 Z M 10.6875 -24.03125 L 6.765625 -24.03125 L 6.765625 -13.78125 L 11 -13.78125 C 13.1875 -13.78125 14.789062 -14.222656 15.8125 -15.109375 C 16.84375 -16.003906 17.359375 -17.316406 17.359375 -19.046875 C 17.359375 -20.859375 16.8125 -22.140625 15.71875 -22.890625 C 14.632812 -23.648438 12.957031 -24.03125 10.6875 -24.03125 Z M 10.6875 -24.03125 "/></g></g></g><g fill="#00a959" fill-opacity="1"><g transform="translate(169.916135, 691.890711)"><g><path d="M 23.875 -26.71875 L 23.875 -9.4375 C 23.875 -7.539062 23.492188 -5.851562 22.734375 -4.375 C 21.972656 -2.90625 20.820312 -1.75 19.28125 -0.90625 C 17.75 -0.0625 15.828125 0.359375 13.515625 0.359375 C 10.210938 0.359375 7.695312 -0.535156 5.96875 -2.328125 C 4.238281 -4.117188 3.375 -6.507812 3.375 -9.5 L 3.375 -26.71875 L 6.5 -26.71875 L 6.5 -9.421875 C 6.5 -7.148438 7.097656 -5.398438 8.296875 -4.171875 C 9.503906 -2.941406 11.300781 -2.328125 13.6875 -2.328125 C 15.320312 -2.328125 16.660156 -2.617188 17.703125 -3.203125 C 18.742188 -3.796875 19.515625 -4.625 20.015625 -5.6875 C 20.523438 -6.757812 20.78125 -7.992188 20.78125 -9.390625 L 20.78125 -26.71875 Z M 23.875 -26.71875 "/></g></g></g><g fill="#00a959" fill-opacity="1"><g transform="translate(194.689962, 691.890711)"><g><path d="M 10.875 -26.71875 C 13.070312 -26.71875 14.882812 -26.445312 16.3125 -25.90625 C 17.75 -25.363281 18.816406 -24.535156 19.515625 -23.421875 C 20.222656 -22.316406 20.578125 -20.90625 20.578125 -19.1875 C 20.578125 -17.78125 20.320312 -16.601562 19.8125 -15.65625 C 19.300781 -14.707031 18.628906 -13.941406 17.796875 -13.359375 C 16.972656 -12.773438 16.09375 -12.328125 15.15625 -12.015625 L 22.484375 0 L 18.859375 0 L 12.328125 -11.15625 L 6.765625 -11.15625 L 6.765625 0 L 3.65625 0 L 3.65625 -26.71875 Z M 10.6875 -24.03125 L 6.765625 -24.03125 L 6.765625 -13.78125 L 11 -13.78125 C 13.1875 -13.78125 14.789062 -14.222656 15.8125 -15.109375 C 16.84375 -16.003906 17.359375 -17.316406 17.359375 -19.046875 C 17.359375 -20.859375 16.8125 -22.140625 15.71875 -22.890625 C 14.632812 -23.648438 12.957031 -24.03125 10.6875 -24.03125 Z M 10.6875 -24.03125 "/></g></g></g><g fill="#00a959" fill-opacity="1"><g transform="translate(215.27913, 691.890711)"><g><path d="M 20.421875 0 L 17.125 -8.484375 L 6.421875 -8.484375 L 3.140625 0 L 0 0 L 10.453125 -26.828125 L 13.25 -26.828125 L 23.640625 0 Z M 16.203125 -11.25 L 13.0625 -19.671875 C 12.988281 -19.890625 12.867188 -20.25 12.703125 -20.75 C 12.546875 -21.25 12.378906 -21.765625 12.203125 -22.296875 C 12.035156 -22.835938 11.898438 -23.269531 11.796875 -23.59375 C 11.671875 -23.09375 11.535156 -22.597656 11.390625 -22.109375 C 11.253906 -21.617188 11.117188 -21.160156 10.984375 -20.734375 C 10.847656 -20.316406 10.734375 -19.960938 10.640625 -19.671875 L 7.453125 -11.25 Z M 16.203125 -11.25 "/></g></g></g><g fill="#00a959" fill-opacity="1"><g transform="translate(236.434792, 691.890711)"><g><path d="M 3.65625 0 L 3.65625 -26.71875 L 6.765625 -26.71875 L 6.765625 -2.78125 L 18.625 -2.78125 L 18.625 0 Z M 3.65625 0 "/></g></g></g><g fill="#00a959" fill-opacity="1"><g transform="translate(253.460616, 691.890711)"><g/></g></g><g fill="#00a959" fill-opacity="1"><g transform="translate(260.673505, 691.890711)"><g><path d="M 24.875 -13.625 C 24.875 -10.613281 24.328125 -8.097656 23.234375 -6.078125 C 22.140625 -4.054688 20.550781 -2.535156 18.46875 -1.515625 C 16.394531 -0.503906 13.875 0 10.90625 0 L 3.65625 0 L 3.65625 -26.71875 L 11.71875 -26.71875 C 14.4375 -26.71875 16.773438 -26.222656 18.734375 -25.234375 C 20.703125 -24.242188 22.21875 -22.773438 23.28125 -20.828125 C 24.34375 -18.890625 24.875 -16.488281 24.875 -13.625 Z M 21.609375 -13.515625 C 21.609375 -15.910156 21.207031 -17.890625 20.40625 -19.453125 C 19.613281 -21.015625 18.445312 -22.175781 16.90625 -22.9375 C 15.363281 -23.695312 13.476562 -24.078125 11.25 -24.078125 L 6.765625 -24.078125 L 6.765625 -2.671875 L 10.546875 -2.671875 C 14.222656 -2.671875 16.984375 -3.578125 18.828125 -5.390625 C 20.679688 -7.203125 21.609375 -9.910156 21.609375 -13.515625 Z M 21.609375 -13.515625 "/></g></g></g><g fill="#00a959" fill-opacity="1"><g transform="translate(285.319429, 691.890711)"><g><path d="M 18.53125 0 L 3.65625 0 L 3.65625 -26.71875 L 18.53125 -26.71875 L 18.53125 -23.984375 L 6.765625 -23.984375 L 6.765625 -15.34375 L 17.859375 -15.34375 L 17.859375 -12.625 L 6.765625 -12.625 L 6.765625 -2.734375 L 18.53125 -2.734375 Z M 18.53125 0 "/></g></g></g><g fill="#00a959" fill-opacity="1"><g transform="translate(303.606133, 691.890711)"><g><path d="M 22.3125 -26.71875 L 12.71875 0 L 9.59375 0 L 0 -26.71875 L 3.25 -26.71875 L 9.5 -9.125 C 9.757812 -8.414062 9.988281 -7.738281 10.1875 -7.09375 C 10.394531 -6.445312 10.578125 -5.820312 10.734375 -5.21875 C 10.890625 -4.625 11.03125 -4.046875 11.15625 -3.484375 C 11.269531 -4.046875 11.40625 -4.628906 11.5625 -5.234375 C 11.726562 -5.835938 11.914062 -6.460938 12.125 -7.109375 C 12.332031 -7.765625 12.5625 -8.453125 12.8125 -9.171875 L 19.03125 -26.71875 Z M 22.3125 -26.71875 "/></g></g></g><g fill="#00a959" fill-opacity="1"><g transform="translate(323.409547, 691.890711)"><g><path d="M 18.53125 0 L 3.65625 0 L 3.65625 -26.71875 L 18.53125 -26.71875 L 18.53125 -23.984375 L 6.765625 -23.984375 L 6.765625 -15.34375 L 17.859375 -15.34375 L 17.859375 -12.625 L 6.765625 -12.625 L 6.765625 -2.734375 L 18.53125 -2.734375 Z M 18.53125 0 "/></g></g></g><g fill="#00a959" fill-opacity="1"><g transform="translate(341.696251, 691.890711)"><g><path d="M 3.65625 0 L 3.65625 -26.71875 L 6.765625 -26.71875 L 6.765625 -2.78125 L 18.625 -2.78125 L 18.625 0 Z M 3.65625 0 "/></g></g></g><g fill="#00a959" fill-opacity="1"><g transform="translate(358.722075, 691.890711)"><g><path d="M 26.828125 -13.40625 C 26.828125 -11.34375 26.566406 -9.46875 26.046875 -7.78125 C 25.523438 -6.09375 24.75 -4.640625 23.71875 -3.421875 C 22.6875 -2.210938 21.410156 -1.28125 19.890625 -0.625 C 18.367188 0.03125 16.601562 0.359375 14.59375 0.359375 C 12.519531 0.359375 10.710938 0.03125 9.171875 -0.625 C 7.628906 -1.28125 6.347656 -2.21875 5.328125 -3.4375 C 4.304688 -4.65625 3.539062 -6.109375 3.03125 -7.796875 C 2.53125 -9.492188 2.28125 -11.375 2.28125 -13.4375 C 2.28125 -16.164062 2.726562 -18.554688 3.625 -20.609375 C 4.53125 -22.671875 5.898438 -24.273438 7.734375 -25.421875 C 9.578125 -26.566406 11.878906 -27.140625 14.640625 -27.140625 C 17.285156 -27.140625 19.507812 -26.570312 21.3125 -25.4375 C 23.125 -24.3125 24.492188 -22.71875 25.421875 -20.65625 C 26.359375 -18.601562 26.828125 -16.1875 26.828125 -13.40625 Z M 5.5625 -13.40625 C 5.5625 -11.132812 5.882812 -9.171875 6.53125 -7.515625 C 7.175781 -5.859375 8.164062 -4.578125 9.5 -3.671875 C 10.832031 -2.773438 12.53125 -2.328125 14.59375 -2.328125 C 16.65625 -2.328125 18.347656 -2.773438 19.671875 -3.671875 C 20.992188 -4.578125 21.972656 -5.859375 22.609375 -7.515625 C 23.242188 -9.171875 23.5625 -11.132812 23.5625 -13.40625 C 23.5625 -16.851562 22.835938 -19.546875 21.390625 -21.484375 C 19.953125 -23.429688 17.703125 -24.40625 14.640625 -24.40625 C 12.566406 -24.40625 10.859375 -23.957031 9.515625 -23.0625 C 8.179688 -22.175781 7.1875 -20.910156 6.53125 -19.265625 C 5.882812 -17.628906 5.5625 -15.675781 5.5625 -13.40625 Z M 5.5625 -13.40625 "/></g></g></g><g fill="#00a959" fill-opacity="1"><g transform="translate(385.323252, 691.890711)"><g><path d="M 10.640625 -26.71875 C 14.085938 -26.71875 16.601562 -26.046875 18.1875 -24.703125 C 19.78125 -23.359375 20.578125 -21.429688 20.578125 -18.921875 C 20.578125 -17.785156 20.390625 -16.707031 20.015625 -15.6875 C 19.648438 -14.675781 19.050781 -13.78125 18.21875 -13 C 17.394531 -12.226562 16.304688 -11.617188 14.953125 -11.171875 C 13.609375 -10.734375 11.960938 -10.515625 10.015625 -10.515625 L 6.765625 -10.515625 L 6.765625 0 L 3.65625 0 L 3.65625 -26.71875 Z M 10.34375 -24.078125 L 6.765625 -24.078125 L 6.765625 -13.1875 L 9.671875 -13.1875 C 11.378906 -13.1875 12.800781 -13.367188 13.9375 -13.734375 C 15.070312 -14.097656 15.925781 -14.691406 16.5 -15.515625 C 17.070312 -16.335938 17.359375 -17.429688 17.359375 -18.796875 C 17.359375 -20.566406 16.789062 -21.890625 15.65625 -22.765625 C 14.53125 -23.640625 12.757812 -24.078125 10.34375 -24.078125 Z M 10.34375 -24.078125 "/></g></g></g><g fill="#00a959" fill-opacity="1"><g transform="translate(405.327676, 691.890711)"><g><path d="M 15.40625 0 L 6.4375 -23.65625 L 6.28125 -23.65625 C 6.332031 -23.15625 6.375 -22.546875 6.40625 -21.828125 C 6.445312 -21.109375 6.476562 -20.320312 6.5 -19.46875 C 6.53125 -18.625 6.546875 -17.765625 6.546875 -16.890625 L 6.546875 0 L 3.65625 0 L 3.65625 -26.71875 L 8.265625 -26.71875 L 16.71875 -4.5 L 16.859375 -4.5 L 25.453125 -26.71875 L 30.015625 -26.71875 L 30.015625 0 L 26.9375 0 L 26.9375 -17.109375 C 26.9375 -17.898438 26.945312 -18.691406 26.96875 -19.484375 C 27 -20.285156 27.03125 -21.039062 27.0625 -21.75 C 27.101562 -22.46875 27.144531 -23.09375 27.1875 -23.625 L 27.03125 -23.625 L 17.953125 0 Z M 15.40625 0 "/></g></g></g><g fill="#00a959" fill-opacity="1"><g transform="translate(436.47901, 691.890711)"><g><path d="M 18.53125 0 L 3.65625 0 L 3.65625 -26.71875 L 18.53125 -26.71875 L 18.53125 -23.984375 L 6.765625 -23.984375 L 6.765625 -15.34375 L 17.859375 -15.34375 L 17.859375 -12.625 L 6.765625 -12.625 L 6.765625 -2.734375 L 18.53125 -2.734375 Z M 18.53125 0 "/></g></g></g><g fill="#00a959" fill-opacity="1"><g transform="translate(454.765688, 691.890711)"><g><path d="M 24.546875 0 L 20.96875 0 L 6.390625 -22.453125 L 6.25 -22.453125 C 6.289062 -21.847656 6.332031 -21.164062 6.375 -20.40625 C 6.425781 -19.644531 6.46875 -18.832031 6.5 -17.96875 C 6.53125 -17.113281 6.546875 -16.242188 6.546875 -15.359375 L 6.546875 0 L 3.65625 0 L 3.65625 -26.71875 L 7.21875 -26.71875 L 21.734375 -4.34375 L 21.859375 -4.34375 C 21.835938 -4.769531 21.804688 -5.375 21.765625 -6.15625 C 21.734375 -6.945312 21.703125 -7.796875 21.671875 -8.703125 C 21.640625 -9.617188 21.625 -10.46875 21.625 -11.25 L 21.625 -26.71875 L 24.546875 -26.71875 Z M 24.546875 0 "/></g></g></g><g fill="#00a959" fill-opacity="1"><g transform="translate(480.43491, 691.890711)"><g><path d="M 11.859375 0 L 8.734375 0 L 8.734375 -23.984375 L 0.328125 -23.984375 L 0.328125 -26.71875 L 20.234375 -26.71875 L 20.234375 -23.984375 L 11.859375 -23.984375 Z M 11.859375 0 "/></g></g></g><g fill="#00a959" fill-opacity="1"><g transform="translate(498.538853, 691.890711)"><g/></g></g><g fill="#00a959" fill-opacity="1"><g transform="translate(505.771124, 691.890711)"><g><path d="M 15.078125 -24.375 C 13.609375 -24.375 12.285156 -24.117188 11.109375 -23.609375 C 9.929688 -23.097656 8.929688 -22.363281 8.109375 -21.40625 C 7.285156 -20.457031 6.65625 -19.304688 6.21875 -17.953125 C 5.78125 -16.597656 5.5625 -15.070312 5.5625 -13.375 C 5.5625 -11.132812 5.910156 -9.1875 6.609375 -7.53125 C 7.304688 -5.882812 8.351562 -4.609375 9.75 -3.703125 C 11.144531 -2.804688 12.890625 -2.359375 14.984375 -2.359375 C 16.179688 -2.359375 17.304688 -2.457031 18.359375 -2.65625 C 19.410156 -2.863281 20.4375 -3.117188 21.4375 -3.421875 L 21.4375 -0.71875 C 20.46875 -0.351562 19.445312 -0.0820312 18.375 0.09375 C 17.300781 0.269531 16.023438 0.359375 14.546875 0.359375 C 11.828125 0.359375 9.554688 -0.203125 7.734375 -1.328125 C 5.921875 -2.453125 4.554688 -4.039062 3.640625 -6.09375 C 2.734375 -8.15625 2.28125 -10.59375 2.28125 -13.40625 C 2.28125 -15.425781 2.5625 -17.269531 3.125 -18.9375 C 3.695312 -20.613281 4.523438 -22.0625 5.609375 -23.28125 C 6.703125 -24.5 8.046875 -25.441406 9.640625 -26.109375 C 11.234375 -26.773438 13.0625 -27.109375 15.125 -27.109375 C 16.46875 -27.109375 17.765625 -26.972656 19.015625 -26.703125 C 20.273438 -26.441406 21.410156 -26.0625 22.421875 -25.5625 L 21.1875 -22.921875 C 20.332031 -23.316406 19.394531 -23.65625 18.375 -23.9375 C 17.363281 -24.226562 16.265625 -24.375 15.078125 -24.375 Z M 15.078125 -24.375 "/></g></g></g><g fill="#00a959" fill-opacity="1"><g transform="translate(526.835407, 691.890711)"><g><path d="M 26.828125 -13.40625 C 26.828125 -11.34375 26.566406 -9.46875 26.046875 -7.78125 C 25.523438 -6.09375 24.75 -4.640625 23.71875 -3.421875 C 22.6875 -2.210938 21.410156 -1.28125 19.890625 -0.625 C 18.367188 0.03125 16.601562 0.359375 14.59375 0.359375 C 12.519531 0.359375 10.710938 0.03125 9.171875 -0.625 C 7.628906 -1.28125 6.347656 -2.21875 5.328125 -3.4375 C 4.304688 -4.65625 3.539062 -6.109375 3.03125 -7.796875 C 2.53125 -9.492188 2.28125 -11.375 2.28125 -13.4375 C 2.28125 -16.164062 2.726562 -18.554688 3.625 -20.609375 C 4.53125 -22.671875 5.898438 -24.273438 7.734375 -25.421875 C 9.578125 -26.566406 11.878906 -27.140625 14.640625 -27.140625 C 17.285156 -27.140625 19.507812 -26.570312 21.3125 -25.4375 C 23.125 -24.3125 24.492188 -22.71875 25.421875 -20.65625 C 26.359375 -18.601562 26.828125 -16.1875 26.828125 -13.40625 Z M 5.5625 -13.40625 C 5.5625 -11.132812 5.882812 -9.171875 6.53125 -7.515625 C 7.175781 -5.859375 8.164062 -4.578125 9.5 -3.671875 C 10.832031 -2.773438 12.53125 -2.328125 14.59375 -2.328125 C 16.65625 -2.328125 18.347656 -2.773438 19.671875 -3.671875 C 20.992188 -4.578125 21.972656 -5.859375 22.609375 -7.515625 C 23.242188 -9.171875 23.5625 -11.132812 23.5625 -13.40625 C 23.5625 -16.851562 22.835938 -19.546875 21.390625 -21.484375 C 19.953125 -23.429688 17.703125 -24.40625 14.640625 -24.40625 C 12.566406 -24.40625 10.859375 -23.957031 9.515625 -23.0625 C 8.179688 -22.175781 7.1875 -20.910156 6.53125 -19.265625 C 5.882812 -17.628906 5.5625 -15.675781 5.5625 -13.40625 Z M 5.5625 -13.40625 "/></g></g></g><g fill="#00a959" fill-opacity="1"><g transform="translate(553.436597, 691.890711)"><g><path d="M 26.828125 -13.40625 C 26.828125 -11.34375 26.566406 -9.46875 26.046875 -7.78125 C 25.523438 -6.09375 24.75 -4.640625 23.71875 -3.421875 C 22.6875 -2.210938 21.410156 -1.28125 19.890625 -0.625 C 18.367188 0.03125 16.601562 0.359375 14.59375 0.359375 C 12.519531 0.359375 10.710938 0.03125 9.171875 -0.625 C 7.628906 -1.28125 6.347656 -2.21875 5.328125 -3.4375 C 4.304688 -4.65625 3.539062 -6.109375 3.03125 -7.796875 C 2.53125 -9.492188 2.28125 -11.375 2.28125 -13.4375 C 2.28125 -16.164062 2.726562 -18.554688 3.625 -20.609375 C 4.53125 -22.671875 5.898438 -24.273438 7.734375 -25.421875 C 9.578125 -26.566406 11.878906 -27.140625 14.640625 -27.140625 C 17.285156 -27.140625 19.507812 -26.570312 21.3125 -25.4375 C 23.125 -24.3125 24.492188 -22.71875 25.421875 -20.65625 C 26.359375 -18.601562 26.828125 -16.1875 26.828125 -13.40625 Z M 5.5625 -13.40625 C 5.5625 -11.132812 5.882812 -9.171875 6.53125 -7.515625 C 7.175781 -5.859375 8.164062 -4.578125 9.5 -3.671875 C 10.832031 -2.773438 12.53125 -2.328125 14.59375 -2.328125 C 16.65625 -2.328125 18.347656 -2.773438 19.671875 -3.671875 C 20.992188 -4.578125 21.972656 -5.859375 22.609375 -7.515625 C 23.242188 -9.171875 23.5625 -11.132812 23.5625 -13.40625 C 23.5625 -16.851562 22.835938 -19.546875 21.390625 -21.484375 C 19.953125 -23.429688 17.703125 -24.40625 14.640625 -24.40625 C 12.566406 -24.40625 10.859375 -23.957031 9.515625 -23.0625 C 8.179688 -22.175781 7.1875 -20.910156 6.53125 -19.265625 C 5.882812 -17.628906 5.5625 -15.675781 5.5625 -13.40625 Z M 5.5625 -13.40625 "/></g></g></g><g fill="#00a959" fill-opacity="1"><g transform="translate(580.037786, 691.890711)"><g><path d="M 10.640625 -26.71875 C 14.085938 -26.71875 16.601562 -26.046875 18.1875 -24.703125 C 19.78125 -23.359375 20.578125 -21.429688 20.578125 -18.921875 C 20.578125 -17.785156 20.390625 -16.707031 20.015625 -15.6875 C 19.648438 -14.675781 19.050781 -13.78125 18.21875 -13 C 17.394531 -12.226562 16.304688 -11.617188 14.953125 -11.171875 C 13.609375 -10.734375 11.960938 -10.515625 10.015625 -10.515625 L 6.765625 -10.515625 L 6.765625 0 L 3.65625 0 L 3.65625 -26.71875 Z M 10.34375 -24.078125 L 6.765625 -24.078125 L 6.765625 -13.1875 L 9.671875 -13.1875 C 11.378906 -13.1875 12.800781 -13.367188 13.9375 -13.734375 C 15.070312 -14.097656 15.925781 -14.691406 16.5 -15.515625 C 17.070312 -16.335938 17.359375 -17.429688 17.359375 -18.796875 C 17.359375 -20.566406 16.789062 -21.890625 15.65625 -22.765625 C 14.53125 -23.640625 12.757812 -24.078125 10.34375 -24.078125 Z M 10.34375 -24.078125 "/></g></g></g><g fill="#00a959" fill-opacity="1"><g transform="translate(600.042198, 691.890711)"><g><path d="M 18.53125 0 L 3.65625 0 L 3.65625 -26.71875 L 18.53125 -26.71875 L 18.53125 -23.984375 L 6.765625 -23.984375 L 6.765625 -15.34375 L 17.859375 -15.34375 L 17.859375 -12.625 L 6.765625 -12.625 L 6.765625 -2.734375 L 18.53125 -2.734375 Z M 18.53125 0 "/></g></g></g><g fill="#00a959" fill-opacity="1"><g transform="translate(618.328889, 691.890711)"><g><path d="M 10.875 -26.71875 C 13.070312 -26.71875 14.882812 -26.445312 16.3125 -25.90625 C 17.75 -25.363281 18.816406 -24.535156 19.515625 -23.421875 C 20.222656 -22.316406 20.578125 -20.90625 20.578125 -19.1875 C 20.578125 -17.78125 20.320312 -16.601562 19.8125 -15.65625 C 19.300781 -14.707031 18.628906 -13.941406 17.796875 -13.359375 C 16.972656 -12.773438 16.09375 -12.328125 15.15625 -12.015625 L 22.484375 0 L 18.859375 0 L 12.328125 -11.15625 L 6.765625 -11.15625 L 6.765625 0 L 3.65625 0 L 3.65625 -26.71875 Z M 10.6875 -24.03125 L 6.765625 -24.03125 L 6.765625 -13.78125 L 11 -13.78125 C 13.1875 -13.78125 14.789062 -14.222656 15.8125 -15.109375 C 16.84375 -16.003906 17.359375 -17.316406 17.359375 -19.046875 C 17.359375 -20.859375 16.8125 -22.140625 15.71875 -22.890625 C 14.632812 -23.648438 12.957031 -24.03125 10.6875 -24.03125 Z M 10.6875 -24.03125 "/></g></g></g><g fill="#00a959" fill-opacity="1"><g transform="translate(638.918057, 691.890711)"><g><path d="M 20.421875 0 L 17.125 -8.484375 L 6.421875 -8.484375 L 3.140625 0 L 0 0 L 10.453125 -26.828125 L 13.25 -26.828125 L 23.640625 0 Z M 16.203125 -11.25 L 13.0625 -19.671875 C 12.988281 -19.890625 12.867188 -20.25 12.703125 -20.75 C 12.546875 -21.25 12.378906 -21.765625 12.203125 -22.296875 C 12.035156 -22.835938 11.898438 -23.269531 11.796875 -23.59375 C 11.671875 -23.09375 11.535156 -22.597656 11.390625 -22.109375 C 11.253906 -21.617188 11.117188 -21.160156 10.984375 -20.734375 C 10.847656 -20.316406 10.734375 -19.960938 10.640625 -19.671875 L 7.453125 -11.25 Z M 16.203125 -11.25 "/></g></g></g><g fill="#00a959" fill-opacity="1"><g transform="translate(660.073706, 691.890711)"><g><path d="M 11.859375 0 L 8.734375 0 L 8.734375 -23.984375 L 0.328125 -23.984375 L 0.328125 -26.71875 L 20.234375 -26.71875 L 20.234375 -23.984375 L 11.859375 -23.984375 Z M 11.859375 0 "/></g></g></g><g fill="#00a959" fill-opacity="1"><g transform="translate(678.177661, 691.890711)"><g><path d="M 3.65625 0 L 3.65625 -26.71875 L 6.765625 -26.71875 L 6.765625 0 Z M 3.65625 0 "/></g></g></g><g fill="#00a959" fill-opacity="1"><g transform="translate(686.121482, 691.890711)"><g><path d="M 22.3125 -26.71875 L 12.71875 0 L 9.59375 0 L 0 -26.71875 L 3.25 -26.71875 L 9.5 -9.125 C 9.757812 -8.414062 9.988281 -7.738281 10.1875 -7.09375 C 10.394531 -6.445312 10.578125 -5.820312 10.734375 -5.21875 C 10.890625 -4.625 11.03125 -4.046875 11.15625 -3.484375 C 11.269531 -4.046875 11.40625 -4.628906 11.5625 -5.234375 C 11.726562 -5.835938 11.914062 -6.460938 12.125 -7.109375 C 12.332031 -7.765625 12.5625 -8.453125 12.8125 -9.171875 L 19.03125 -26.71875 Z M 22.3125 -26.71875 "/></g></g></g><g fill="#00a959" fill-opacity="1"><g transform="translate(705.924884, 691.890711)"><g><path d="M 18.53125 0 L 3.65625 0 L 3.65625 -26.71875 L 18.53125 -26.71875 L 18.53125 -23.984375 L 6.765625 -23.984375 L 6.765625 -15.34375 L 17.859375 -15.34375 L 17.859375 -12.625 L 6.765625 -12.625 L 6.765625 -2.734375 L 18.53125 -2.734375 Z M 18.53125 0 "/></g></g></g></svg>