<?xml version="1.0" encoding="UTF-8"?>
<!DOCTYPE svg PUBLIC "-//W3C//DTD SVG 1.1//EN" "http://www.w3.org/Graphics/SVG/1.1/DTD/svg11.dtd">
<!-- Creator: CorelDRAW X7 -->
<svg xmlns="http://www.w3.org/2000/svg" xml:space="preserve" width="11.7312cm" height="9.9237cm" version="1.1" style="shape-rendering:geometricPrecision; text-rendering:geometricPrecision; image-rendering:optimizeQuality; fill-rule:evenodd; clip-rule:evenodd"
viewBox="0 0 12462 10542"
 xmlns:xlink="http://www.w3.org/1999/xlink">
 <defs>
  <style type="text/css">
   <![CDATA[
    .fil0 {fill:#875B56}
    .fil1 {fill:#00A859}
    .fil2 {fill:#875B56;fill-rule:nonzero}
   ]]>
  </style>
 </defs>
 <g id="Layer_x0020_1">
  <metadata id="CorelCorpID_0Corel-Layer"/>
  <g id="_2453673743392">
   <path class="fil0" d="M9907 6713l1220 2689 -4366 -1c125,-413 252,-798 387,-1159l2002 0 -562 -1539 1319 10zm-3328 2687l-723 0c-80,-425 -172,-810 -275,-1158l1381 0c-134,362 -260,746 -383,1158zm-901 0l-1131 0c143,-415 289,-800 439,-1158l411 0c107,347 200,731 281,1158zm-1315 0l-140 0c-62,-422 -135,-805 -225,-1158l798 0c-148,359 -293,744 -433,1158zm-317 0l-4046 -1 1238 -2696 1548 0 -820 1539 1852 0c92,352 165,735 228,1158z"/>
   <path class="fil0" d="M5253 2321l-1025 0 1599 3937c213,-321 436,-611 670,-874l-1244 -3063zm656 4139l900 2215c156,-463 321,-889 502,-1286l-738 -1817c-232,267 -453,561 -664,888zm1001 2465l192 472 1025 0 -725 -1783c-176,403 -338,838 -492,1311z"/>
   <path class="fil0" d="M6341 0l-1517 0 1997 5045c357,-350 740,-649 1155,-914l-1635 -4131zm552 5229l660 1666c272,-519 583,-989 951,-1429l-461 -1164c-413,268 -794,571 -1150,927zm745 1882l905 2286 1517 0 -1482 -3745c-365,447 -671,926 -940,1459z"/>
   <path class="fil1" d="M4811 3756l257 632 1025 0 -777 -1913 243 -617 238 601 1517 0 -973 -2459 -50 0 -1467 0 -49 0 -1961 4975c462,212 869,449 1225,741l772 -1960zm-2346 2105l-331 842 1030 0c-62,-98 -99,-149 -170,-243 -154,-207 -329,-405 -529,-599z"/>
   <path class="fil0" d="M2134 6703l-1062 2694 1517 0 860 -2184c-6,-12 -12,-25 -18,-38l0 0c-7,-14 -14,-29 -22,-43l0 -2c-13,-26 -27,-51 -40,-77l-5 -10 -17 -31 -4 -7 -18 -32 -6 -12 -4 -7 -4 -7 -4 -7 -4 -8 -8 -14 -4 -7 -10 -16 -11 -20 0 0 -4 -7 -5 -7 -4 -8 -8 -14 -5 -7 -4 -7 -4 -7 -16 -26 -1 -2 -51 -80 -4 -7 -1030 0z"/>
   <path class="fil1" d="M5680 9409c-125,-658 -278,-1213 -463,-1687 -235,501 -458,1060 -673,1687l1136 0zm-554 -1907c-801,-1840 -2153,-2375 -4320,-3084 1083,656 1816,1251 2328,1936 607,814 899,1748 1090,3055l136 0c243,-718 497,-1349 766,-1907z"/>
   <path class="fil1" d="M12462 2512c-4127,1280 -6266,2073 -7918,6897l2032 0c533,-1786 1123,-3057 2118,-4161 870,-966 2048,-1800 3768,-2736z"/>
  </g>
  <path class="fil2" d="M163 10534c-4,0 -7,-2 -9,-7l-153 -588 -1 -4c0,-4 2,-6 6,-6l59 0c4,0 7,3 8,7l119 478c0,1 1,2 2,2 1,0 2,-1 2,-2l119 -478c1,-4 4,-7 7,-7l57 0c5,0 7,3 6,10l-155 588c-2,5 -5,7 -9,7l-58 0z"/>
  <path id="1" class="fil2" d="M475 10534c-5,0 -7,-3 -7,-8l0 -588c0,-6 2,-9 7,-9l54 0c5,0 7,3 7,9l0 588c0,5 -2,8 -7,8l-54 0z"/>
  <path id="2" class="fil2" d="M988 9992c0,6 -2,9 -7,9l-255 0c-2,0 -3,1 -3,3l0 186c0,3 1,4 3,4l175 0c5,0 7,3 7,8l0 55c0,6 -2,8 -7,8l-175 0c-2,0 -3,2 -3,4l0 190c0,2 1,4 3,4l255 0c5,0 7,2 7,8l0 55c0,5 -2,8 -7,8l-320 0c-4,0 -7,-3 -7,-8l0 -588c0,-6 3,-9 7,-9l320 0c5,0 7,3 7,9l0 54z"/>
  <path id="3" class="fil2" d="M1403 9929c5,0 7,3 7,9l0 55c0,6 -2,9 -7,9l-138 0c-2,0 -3,1 -3,3l0 521c0,5 -2,8 -7,8l-54 0c-5,0 -8,-3 -8,-8l0 -521c0,-2 0,-3 -2,-3l-132 0c-5,0 -7,-3 -7,-9l0 -55c0,-6 2,-9 7,-9l344 0z"/>
  <path id="4" class="fil2" d="M1945 10534c-5,0 -8,-2 -9,-7l-26 -101c0,-1 -1,-2 -3,-2l-201 0c-2,0 -3,1 -3,2l-26 101c-2,5 -5,7 -9,7l-58 0c-5,0 -7,-3 -6,-9l158 -589c1,-4 4,-7 8,-7l72 0c4,0 7,3 9,7l158 589 1 3c0,4 -2,6 -6,6l-59 0zm-224 -180c-1,1 -1,2 0,3 1,1 2,1 2,1l166 0c1,0 1,0 2,-1 1,-1 1,-2 1,-3l-84 -321c0,-1 -1,-2 -2,-2 -1,0 -2,1 -2,2l-83 321z"/>
  <path id="5" class="fil2" d="M2243 10541c-35,0 -65,-8 -92,-24 -26,-17 -47,-40 -62,-70 -14,-31 -22,-65 -22,-105l0 -221c0,-40 8,-75 22,-104 15,-30 36,-54 62,-70 27,-16 57,-25 92,-25 34,0 65,8 91,25 26,16 47,38 61,66 15,29 22,61 22,97l0 9c0,6 -2,9 -7,9l-55 0c-4,0 -7,-3 -7,-9l0 -7c0,-35 -9,-63 -29,-85 -19,-21 -45,-32 -76,-32 -32,0 -58,11 -78,34 -19,22 -29,52 -29,90l0 226c0,37 10,67 31,90 20,22 46,34 79,34 31,0 56,-10 75,-30 18,-20 27,-47 27,-82l0 -66c0,-3 -1,-4 -3,-4l-97 0c-4,0 -7,-3 -7,-9l0 -53c0,-6 3,-9 7,-9l162 0c5,0 7,3 7,9l0 110c0,66 -16,117 -47,153 -31,35 -74,53 -127,53z"/>
  <path id="6" class="fil2" d="M2808 10534c-4,0 -7,-2 -8,-6l-101 -258c0,-2 -1,-3 -2,-3l-104 0c-2,0 -3,1 -3,4l0 255c0,5 -2,8 -7,8l-55 0c-4,0 -7,-3 -7,-8l0 -588c0,-6 3,-9 7,-9l194 0c28,0 54,7 75,22 22,14 39,34 51,60 12,26 18,56 18,90 0,41 -9,75 -26,103 -18,28 -42,46 -73,56 -2,1 -2,3 -2,5l105 259c0,1 0,3 0,4 0,4 -2,6 -5,6l-57 0zm-215 -533c-2,0 -3,1 -3,3l0 194c0,2 1,4 3,4l120 0c25,0 46,-10 61,-28 15,-18 23,-42 23,-72 0,-30 -8,-55 -23,-73 -15,-19 -36,-28 -61,-28l-120 0z"/>
  <path id="7" class="fil2" d="M2969 10534c-5,0 -7,-3 -7,-8l0 -588c0,-6 2,-9 7,-9l54 0c5,0 7,3 7,9l0 588c0,5 -2,8 -7,8l-54 0z"/>
  <path id="8" class="fil2" d="M3310 10542c-35,0 -65,-8 -92,-25 -26,-16 -47,-39 -62,-70 -14,-30 -21,-65 -21,-104l0 -224c0,-39 7,-73 21,-103 15,-30 36,-53 62,-69 27,-16 57,-25 92,-25 34,0 65,8 91,24 26,16 47,38 61,67 15,29 22,62 22,100l0 1c0,3 0,5 -2,7 -1,2 -3,3 -5,3l-54 3c-5,0 -8,-2 -8,-8l0 -2c0,-37 -9,-67 -28,-89 -20,-23 -45,-34 -77,-34 -32,0 -58,11 -77,34 -20,22 -29,52 -29,89l0 230c0,37 9,66 29,89 19,22 45,33 77,33 32,0 57,-11 77,-33 19,-23 28,-52 28,-89l0 -2c0,-5 3,-8 8,-8l54 4c5,0 7,3 7,8 0,38 -7,72 -22,101 -14,29 -35,52 -61,68 -26,16 -57,24 -91,24z"/>
  <path id="9" class="fil2" d="M3756 10541c-35,0 -66,-8 -93,-24 -26,-17 -47,-40 -62,-70 -14,-31 -22,-65 -22,-105l0 -404c0,-6 2,-9 7,-9l55 0c5,0 7,3 7,9l0 406c0,38 10,68 30,91 20,23 46,34 78,34 32,0 58,-11 77,-34 20,-23 30,-53 30,-91l0 -406c0,-6 2,-9 7,-9l55 0c4,0 7,3 7,9l0 404c0,40 -8,74 -22,105 -15,30 -35,53 -62,70 -27,16 -57,24 -92,24z"/>
  <path id="10" class="fil2" d="M4052 10534c-5,0 -8,-3 -8,-8l0 -588c0,-6 3,-9 8,-9l54 0c5,0 7,3 7,9l0 521c0,2 1,4 3,4l248 0c5,0 7,2 7,8l0 55c0,5 -2,8 -7,8l-312 0z"/>
  <path id="11" class="fil2" d="M4710 9929c5,0 7,3 7,9l0 55c0,6 -2,9 -7,9l-138 0c-2,0 -3,1 -3,3l0 521c0,5 -2,8 -7,8l-54 0c-5,0 -8,-3 -8,-8l0 -521c0,-2 -1,-3 -2,-3l-132 0c-5,0 -7,-3 -7,-9l0 -55c0,-6 2,-9 7,-9l344 0z"/>
  <path id="12" class="fil2" d="M4974 10541c-35,0 -65,-8 -92,-24 -26,-17 -47,-40 -62,-70 -15,-31 -22,-65 -22,-105l0 -404c0,-6 2,-9 7,-9l54 0c5,0 8,3 8,9l0 406c0,38 10,68 29,91 20,23 46,34 78,34 32,0 58,-11 78,-34 20,-23 29,-53 29,-91l0 -406c0,-6 3,-9 8,-9l54 0c5,0 7,3 7,9l0 404c0,40 -7,74 -22,105 -14,30 -35,53 -61,70 -27,16 -58,24 -93,24z"/>
  <path id="13" class="fil2" d="M5550 10534c-4,0 -7,-2 -8,-6l-101 -258c0,-2 -1,-3 -3,-3l-103 0c-2,0 -3,1 -3,4l0 255c0,5 -2,8 -7,8l-55 0c-5,0 -7,-3 -7,-8l0 -588c0,-6 2,-9 7,-9l193 0c29,0 54,7 76,22 22,14 39,34 51,60 12,26 18,56 18,90 0,41 -9,75 -26,103 -18,28 -42,46 -73,56 -2,1 -3,3 -2,5l104 259c1,1 1,3 1,4 0,4 -2,6 -6,6l-56 0zm-215 -533c-2,0 -3,1 -3,3l0 194c0,2 1,4 3,4l120 0c25,0 46,-10 61,-28 15,-18 23,-42 23,-72 0,-30 -8,-55 -23,-73 -15,-19 -36,-28 -61,-28l-120 0z"/>
  <path id="14" class="fil2" d="M6029 10534c-4,0 -7,-2 -8,-7l-26 -101c-1,-1 -2,-2 -3,-2l-202 0c-1,0 -2,1 -3,2l-26 101c-1,5 -4,7 -8,7l-58 0c-6,0 -8,-3 -6,-9l157 -589c2,-4 4,-7 9,-7l72 0c4,0 7,3 8,7l159 589 1 3c0,4 -3,6 -7,6l-59 0zm-224 -180c0,1 0,2 1,3 0,1 1,1 2,1l165 0c1,0 2,0 3,-1 1,-1 1,-2 0,-3l-83 -321c-1,-1 -1,-2 -2,-2 -1,0 -2,1 -2,2l-84 321z"/>
  <path id="15" class="fil2" d="M6184 10534c-5,0 -7,-3 -7,-8l0 -588c0,-6 2,-9 7,-9l54 0c5,0 7,3 7,9l0 521c0,2 1,4 3,4l248 0c5,0 7,2 7,8l0 55c0,5 -2,8 -7,8l-312 0z"/>
  <path id="16" class="fil2" d="M6891 10542c-34,0 -65,-8 -92,-25 -26,-16 -47,-39 -61,-70 -15,-30 -22,-65 -22,-104l0 -224c0,-39 7,-73 22,-103 14,-30 35,-53 61,-69 27,-16 58,-25 92,-25 34,0 65,8 91,24 27,16 47,38 62,67 14,29 22,62 22,100l0 1c0,3 -1,5 -3,7 -1,2 -3,3 -5,3l-54 3c-5,0 -7,-2 -7,-8l0 -2c0,-37 -10,-67 -29,-89 -19,-23 -45,-34 -77,-34 -32,0 -58,11 -77,34 -20,22 -29,52 -29,89l0 230c0,37 9,66 29,89 19,22 45,33 77,33 32,0 58,-11 77,-33 19,-23 29,-52 29,-89l0 -2c0,-5 2,-8 7,-8l54 4c5,0 8,3 8,8 0,38 -8,72 -22,101 -15,29 -35,52 -62,68 -26,16 -57,24 -91,24z"/>
  <path id="17" class="fil2" d="M7329 10542c-35,0 -66,-9 -93,-26 -26,-17 -47,-41 -62,-73 -15,-31 -22,-67 -22,-108l0 -206c0,-41 7,-77 22,-108 15,-31 36,-55 62,-73 27,-17 58,-26 93,-26 36,0 67,9 93,26 27,18 48,42 63,73 15,31 22,67 22,108l0 206c0,41 -7,77 -22,108 -15,32 -36,56 -63,73 -26,17 -57,26 -93,26zm0 -72c33,0 59,-12 79,-36 20,-24 30,-56 30,-96l0 -210c0,-40 -10,-73 -30,-97 -20,-25 -46,-37 -79,-37 -32,0 -59,12 -79,37 -19,24 -29,57 -29,97l0 210c0,40 10,72 29,96 20,24 47,36 79,36z"/>
  <path id="18" class="fil2" d="M7776 10542c-35,0 -66,-9 -93,-26 -27,-17 -48,-41 -62,-73 -15,-31 -23,-67 -23,-108l0 -206c0,-41 8,-77 23,-108 14,-31 35,-55 62,-73 27,-17 58,-26 93,-26 35,0 66,9 93,26 27,18 48,42 63,73 14,31 22,67 22,108l0 206c0,41 -8,77 -22,108 -15,32 -36,56 -63,73 -27,17 -58,26 -93,26zm0 -72c32,0 59,-12 79,-36 20,-24 30,-56 30,-96l0 -210c0,-40 -10,-73 -30,-97 -20,-25 -47,-37 -79,-37 -33,0 -59,12 -79,37 -20,24 -30,57 -30,97l0 210c0,40 10,72 30,96 20,24 46,36 79,36z"/>
  <path id="19" class="fil2" d="M8255 9928c30,0 55,8 78,22 22,15 39,36 51,62 13,27 19,57 19,92 0,34 -7,65 -19,91 -12,26 -30,46 -53,60 -23,15 -49,22 -78,22l-127 0c-2,0 -3,1 -3,3l0 246c0,5 -2,8 -7,8l-54 0c-5,0 -8,-3 -8,-8l0 -589c0,-6 3,-9 8,-9l193 0zm-9 281c26,0 48,-9 64,-28 16,-19 24,-44 24,-75 0,-32 -8,-58 -24,-77 -16,-19 -38,-29 -64,-29l-120 0c-2,0 -3,1 -3,4l0 202c0,2 1,3 3,3l120 0z"/>
  <path id="20" class="fil2" d="M8818 9992c0,6 -2,9 -7,9l-255 0c-2,0 -3,1 -3,3l0 186c0,3 1,4 3,4l176 0c4,0 7,3 7,8l0 55c0,6 -3,8 -7,8l-176 0c-2,0 -3,2 -3,4l0 190c0,2 1,4 3,4l255 0c5,0 7,2 7,8l0 55c0,5 -2,8 -7,8l-319 0c-5,0 -7,-3 -7,-8l0 -588c0,-6 2,-9 7,-9l319 0c5,0 7,3 7,9l0 54z"/>
  <path id="21" class="fil2" d="M9200 10534c-3,0 -6,-2 -7,-6l-101 -258c0,-2 -1,-3 -3,-3l-103 0c-2,0 -3,1 -3,4l0 255c0,5 -3,8 -7,8l-55 0c-5,0 -7,-3 -7,-8l0 -588c0,-6 2,-9 7,-9l193 0c29,0 54,7 76,22 22,14 39,34 51,60 12,26 18,56 18,90 0,41 -9,75 -27,103 -17,28 -41,46 -72,56 -2,1 -3,3 -2,5l104 259c1,1 1,3 1,4 0,4 -2,6 -6,6l-57 0zm-214 -533c-2,0 -3,1 -3,3l0 194c0,2 1,4 3,4l120 0c25,0 45,-10 61,-28 15,-18 23,-42 23,-72 0,-30 -8,-55 -23,-73 -16,-19 -36,-28 -61,-28l-120 0z"/>
  <path id="22" class="fil2" d="M9680 10534c-4,0 -7,-2 -8,-7l-26 -101c-1,-1 -2,-2 -3,-2l-202 0c-1,0 -2,1 -3,2l-26 101c-1,5 -4,7 -8,7l-58 0c-6,0 -8,-3 -6,-9l157 -589c1,-4 4,-7 9,-7l71 0c5,0 8,3 9,7l159 589 1 3c0,4 -3,6 -7,6l-59 0zm-224 -180c0,1 0,2 0,3 1,1 2,1 3,1l165 0c1,0 2,0 3,-1 0,-1 1,-2 0,-3l-83 -321c-1,-1 -1,-2 -2,-2 -1,0 -2,1 -3,2l-83 321z"/>
  <path id="23" class="fil2" d="M10095 9929c5,0 7,3 7,9l0 55c0,6 -2,9 -7,9l-138 0c-2,0 -2,1 -2,3l0 521c0,5 -3,8 -8,8l-54 0c-5,0 -7,-3 -7,-8l0 -521c0,-2 -1,-3 -3,-3l-132 0c-5,0 -7,-3 -7,-9l0 -55c0,-6 2,-9 7,-9l344 0z"/>
  <path id="24" class="fil2" d="M10195 10534c-5,0 -7,-3 -7,-8l0 -588c0,-6 2,-9 7,-9l55 0c4,0 7,3 7,9l0 588c0,5 -3,8 -7,8l-55 0z"/>
  <path id="25" class="fil2" d="M10502 10534c-5,0 -7,-2 -9,-7l-154 -588 0 -4c0,-4 2,-6 6,-6l58 0c5,0 8,3 9,7l118 478c1,1 2,2 3,2 1,0 1,-1 2,-2l118 -478c2,-4 4,-7 8,-7l57 0c5,0 7,3 6,10l-156 588c-1,5 -4,7 -8,7l-58 0z"/>
  <path id="26" class="fil2" d="M11132 9992c0,6 -2,9 -7,9l-255 0c-2,0 -3,1 -3,3l0 186c0,3 1,4 3,4l175 0c5,0 7,3 7,8l0 55c0,6 -2,8 -7,8l-175 0c-2,0 -3,2 -3,4l0 190c0,2 1,4 3,4l255 0c5,0 7,2 7,8l0 55c0,5 -2,8 -7,8l-320 0c-4,0 -7,-3 -7,-8l0 -588c0,-6 3,-9 7,-9l320 0c5,0 7,3 7,9l0 54z"/>
 </g>
</svg>
